<svg version="1.1" width="400" height="400" viewBox="0 0 320 320" fill="none" stroke="#000" stroke-linecap="round" xmlns="http://www.w3.org/2000/svg" xmlns:xlink="http://www.w3.org/1999/xlink">
<defs>
<path id="r1" d="m 137.787 49.6175 l 22.2131 -12.5874 l 22.2131 12.5874">
<animate id="p1" attributeName="d" values="m160,160l0,0 0,0;m130,110l30,-17 30,17;m130,60l30,-17 30,17;m160,20l0,0 0,0" dur="6s" repeatCount="indefinite"></animate>
<animate attributeName="stroke-width" values="0;4;4;4;0" dur="6s" repeatCount="indefinite" begin="p1.begin"></animate>
</path>
<path id="r2" d="m 130 72.0219 l 30 -17 l 30 17">
<animate attributeName="d" values="m160,160l0,0 0,0;m130,110l30,-17 30,17;m130,60l30,-17 30,17;m160,20l0,0 0,0" dur="6s" repeatCount="indefinite" begin="p1.begin+1s"></animate>
<animate attributeName="stroke-width" values="0;4;4;4;0" dur="6s" repeatCount="indefinite" begin="p1.begin+1s"></animate>
</path>
<path id="r3" d="m 130 97.0219 l 30 -17 l 30 17">
<animate attributeName="d" values="m160,160l0,0 0,0;m130,110l30,-17 30,17;m130,60l30,-17 30,17;m160,20l0,0 0,0" dur="6s" repeatCount="indefinite" begin="p1.begin+2s"></animate>
<animate attributeName="stroke-width" values="0;4;4;4;0" dur="6s" repeatCount="indefinite" begin="p1.begin+2s"></animate>
</path>
<path id="r4" d="m 137.213 122.022 l 22.7869 -12.9126 l 22.7869 12.9126">
<animate id="p1" attributeName="d" values="m160,160l0,0 0,0;m130,110l30,-17 30,17;m130,60l30,-17 30,17;m160,20l0,0 0,0" dur="6s" repeatCount="indefinite" begin="p1.begin+3s"></animate>
<animate attributeName="stroke-width" values="0;4;4;4;0" dur="6s" repeatCount="indefinite" begin="p1.begin+3s"></animate>
</path>
<path id="r5" d="m 152.213 147.022 l 7.78689 -4.41257 l 7.78689 4.41257">
<animate attributeName="d" values="m160,160l0,0 0,0;m130,110l30,-17 30,17;m130,60l30,-17 30,17;m160,20l0,0 0,0" dur="6s" repeatCount="indefinite" begin="p1.begin+4s"></animate>
<animate attributeName="stroke-width" values="0;4;4;4;0" dur="6s" repeatCount="indefinite" begin="p1.begin+4s"></animate>
</path>
<path id="r6" d="m 152.787 29.6175 l 7.21311 -4.08743 l 7.21311 4.08743">
<animate attributeName="d" values="m160,160l0,0 0,0;m130,110l30,-17 30,17;m130,60l30,-17 30,17;m160,20l0,0 0,0" dur="6s" repeatCount="indefinite" begin="p1.begin+5s"></animate>
<animate attributeName="stroke-width" values="0;4;4;4;0" dur="6s" repeatCount="indefinite" begin="p1.begin+5s"></animate>
</path>
</defs>
<use xlink:href="#r1"></use>
<use xlink:href="#r1" transform="rotate(60 160 160)"></use>
<use xlink:href="#r1" transform="rotate(120 160 160)"></use>
<use xlink:href="#r1" transform="rotate(180 160 160)"></use>
<use xlink:href="#r1" transform="rotate(240 160 160)"></use>
<use xlink:href="#r1" transform="rotate(300 160 160)"></use>
<use xlink:href="#r2" transform="rotate(30 160 160)"></use>
<use xlink:href="#r2" transform="rotate(90 160 160)"></use>
<use xlink:href="#r2" transform="rotate(150 160 160)"></use>
<use xlink:href="#r2" transform="rotate(210 160 160)"></use>
<use xlink:href="#r2" transform="rotate(270 160 160)"></use>
<use xlink:href="#r2" transform="rotate(330 160 160)"></use>
<use xlink:href="#r3"></use>
<use xlink:href="#r3" transform="rotate(60 160 160)"></use>
<use xlink:href="#r3" transform="rotate(120 160 160)"></use>
<use xlink:href="#r3" transform="rotate(180 160 160)"></use>
<use xlink:href="#r3" transform="rotate(240 160 160)"></use>
<use xlink:href="#r3" transform="rotate(300 160 160)"></use>
<use xlink:href="#r4" transform="rotate(30 160 160)"></use>
<use xlink:href="#r4" transform="rotate(90 160 160)"></use>
<use xlink:href="#r4" transform="rotate(150 160 160)"></use>
<use xlink:href="#r4" transform="rotate(210 160 160)"></use>
<use xlink:href="#r4" transform="rotate(270 160 160)"></use>
<use xlink:href="#r4" transform="rotate(330 160 160)"></use>
<use xlink:href="#r5"></use>
<use xlink:href="#r5" transform="rotate(60 160 160)"></use>
<use xlink:href="#r5" transform="rotate(120 160 160)"></use>
<use xlink:href="#r5" transform="rotate(180 160 160)"></use>
<use xlink:href="#r5" transform="rotate(240 160 160)"></use>
<use xlink:href="#r5" transform="rotate(300 160 160)"></use>
<use xlink:href="#r6" transform="rotate(30 160 160)"></use>
<use xlink:href="#r6" transform="rotate(90 160 160)"></use>
<use xlink:href="#r6" transform="rotate(150 160 160)"></use>
<use xlink:href="#r6" transform="rotate(210 160 160)"></use>
<use xlink:href="#r6" transform="rotate(270 160 160)"></use>
<use xlink:href="#r6" transform="rotate(330 160 160)"></use>
</svg>